<?xml version="1.0" standalone="no"?>
<!DOCTYPE svg PUBLIC "-//W3C//DTD SVG 20010904//EN"
 "http://www.w3.org/TR/2001/REC-SVG-20010904/DTD/svg10.dtd">
<svg version="1.0" xmlns="http://www.w3.org/2000/svg"
 width="600.000000pt" height="842.000000pt" viewBox="0 0 600.000000 842.000000"
 preserveAspectRatio="xMidYMid meet">

<g transform="translate(0.000000,842.000000) scale(0.100000,-0.100000)"
fill="#000000" stroke="none">
<path d="M5740 8210 c0 -6 -7 -10 -17 -10 -9 0 -14 -2 -11 -5 7 -8 -59 -75
-73 -75 -6 0 -27 -16 -46 -35 -19 -19 -40 -32 -46 -28 -6 3 -7 1 -3 -5 4 -7 1
-12 -8 -12 -9 0 -16 -5 -16 -11 0 -6 -7 -8 -16 -5 -8 3 -12 2 -9 -4 7 -11 -60
-80 -77 -80 -6 0 -29 -18 -50 -40 -22 -22 -44 -40 -49 -40 -5 0 -25 -16 -46
-35 -20 -19 -40 -32 -45 -29 -5 3 -7 0 -6 -8 2 -7 -3 -12 -10 -10 -6 1 -11 -1
-11 -5 4 -24 -4 -33 -28 -33 -14 0 -23 -3 -20 -6 7 -7 -42 -54 -56 -54 -5 0
-30 -22 -57 -50 -27 -27 -54 -50 -62 -50 -7 -1 -31 -19 -53 -40 -22 -22 -44
-40 -48 -40 -5 0 -26 -18 -48 -40 -39 -39 -57 -51 -43 -28 4 7 3 8 -5 4 -6 -4
-9 -12 -6 -17 4 -5 -2 -12 -12 -16 -10 -4 -36 -24 -57 -45 -22 -21 -45 -38
-53 -38 -7 0 -13 -5 -13 -11 0 -6 -7 -8 -16 -5 -8 3 -12 2 -9 -4 8 -13 -20
-41 -43 -45 -10 -1 -16 -9 -14 -19 2 -10 -4 -16 -14 -16 -9 0 -35 -18 -56 -40
-22 -22 -44 -40 -49 -40 -5 0 -25 -16 -46 -35 -20 -19 -40 -32 -44 -30 -3 3
-13 -3 -20 -13 -13 -16 -13 -16 6 -2 19 14 19 14 6 -2 -7 -10 -19 -18 -25 -18
-6 -1 -29 -19 -51 -40 -22 -22 -44 -40 -48 -40 -5 0 -30 -22 -57 -50 -27 -27
-55 -50 -62 -50 -7 -1 -31 -19 -53 -40 -22 -22 -44 -40 -48 -40 -5 0 -26 -18
-48 -40 -22 -22 -45 -40 -51 -40 -6 0 -28 -18 -50 -41 -22 -23 -43 -37 -50
-33 -7 5 -8 3 -4 -5 5 -8 0 -14 -13 -18 -12 -3 -21 -10 -21 -15 0 -6 -7 -7
-16 -4 -9 3 -12 2 -8 -5 6 -10 -31 -44 -48 -44 -4 0 -13 -7 -20 -15 -11 -12
-11 -12 5 -1 15 12 17 12 11 -3 -3 -9 -17 -16 -32 -16 -14 0 -23 -2 -20 -5 7
-7 -58 -75 -72 -75 -5 0 -29 -18 -52 -40 -24 -22 -49 -40 -55 -40 -7 0 -13 -5
-13 -11 0 -6 -7 -8 -16 -5 -8 3 -13 2 -10 -3 7 -11 -59 -73 -68 -64 -4 5 -7 4
-6 -2 5 -25 -2 -35 -27 -35 -14 0 -24 -3 -20 -6 7 -7 -58 -74 -73 -74 -6 0
-22 -11 -36 -25 -14 -14 -30 -23 -35 -19 -5 3 -8 0 -7 -6 2 -7 -6 -17 -17 -23
-11 -7 -32 -25 -47 -40 -15 -16 -36 -30 -45 -31 -10 -2 -18 -9 -18 -17 0 -8
-12 -15 -30 -17 -25 -2 -40 6 -83 48 -28 27 -55 50 -59 50 -4 0 -26 18 -48 40
-22 21 -46 39 -53 40 -7 0 -35 23 -61 50 -26 28 -52 50 -57 50 -5 0 -27 18
-49 40 -22 21 -48 39 -57 40 -16 0 -23 11 -19 33 1 5 -3 6 -7 3 -12 -7 -58 32
-49 41 11 10 -13 32 -29 26 -8 -3 -14 0 -14 6 0 6 -6 11 -12 11 -7 0 -27 14
-45 30 -18 17 -36 30 -41 30 -16 0 -83 71 -76 81 3 5 -2 6 -10 3 -9 -3 -16 -1
-16 5 0 6 -6 11 -13 11 -8 0 -32 18 -55 40 -22 22 -45 40 -51 40 -6 0 -33 22
-60 50 -27 28 -53 50 -58 50 -4 0 -26 18 -48 40 -22 21 -46 39 -53 40 -16 0
-83 66 -75 74 4 3 -3 6 -14 6 -23 0 -46 23 -35 35 4 5 2 5 -4 2 -6 -3 -27 9
-47 28 -21 19 -41 35 -45 35 -5 0 -32 23 -60 50 -28 28 -56 50 -61 50 -5 0
-27 18 -49 40 -21 22 -44 40 -50 40 -17 0 -84 69 -77 80 3 6 -1 7 -9 4 -9 -3
-16 -1 -16 5 0 6 -6 11 -14 11 -7 0 -31 17 -53 38 -22 21 -47 41 -57 45 -9 4
-15 11 -11 16 3 5 0 13 -6 17 -8 4 -9 3 -5 -4 14 -23 -4 -11 -43 28 -22 22
-44 40 -49 40 -5 0 -27 18 -50 40 -22 22 -46 40 -52 40 -6 0 -28 17 -49 38
-20 20 -46 42 -56 49 -11 6 -19 16 -18 22 2 6 -1 10 -6 8 -5 -1 -25 13 -44 31
-20 17 -43 32 -52 32 -14 0 -20 12 -16 33 1 5 -3 6 -8 3 -6 -4 -26 9 -45 29
-19 19 -40 35 -45 35 -6 0 -28 18 -50 40 -22 22 -44 40 -49 40 -16 0 -83 71
-76 81 3 5 -2 6 -10 3 -9 -3 -16 -2 -16 4 0 5 -9 12 -21 15 -13 4 -18 10 -13
18 4 8 3 10 -4 5 -6 -4 -24 6 -39 22 -15 16 -36 32 -46 35 -11 4 -15 12 -11
18 5 8 3 9 -5 4 -8 -4 -18 1 -27 14 -17 23 -49 28 -57 9 -4 -10 -6 -10 -6 0
-1 8 8 16 19 19 26 7 15 23 -16 23 l-24 0 0 -951 c0 -751 3 -950 13 -946 14 5
39 -18 30 -27 -4 -3 3 -6 14 -6 11 0 43 -22 71 -50 28 -27 56 -50 61 -50 5 0
13 -5 17 -12 5 -7 3 -8 -6 -3 -9 5 -11 4 -6 -4 4 -6 12 -9 17 -5 12 7 60 -46
53 -58 -3 -4 2 -5 10 -2 9 3 16 1 16 -5 0 -6 7 -11 16 -11 9 0 12 -5 8 -12 -4
-6 -3 -8 3 -5 14 9 57 -29 48 -42 -3 -7 0 -8 9 -5 9 3 16 1 16 -5 0 -6 9 -11
21 -11 15 0 19 -5 15 -16 -3 -9 -2 -12 4 -9 6 4 28 -12 49 -34 22 -23 44 -41
49 -41 6 0 28 -18 50 -40 21 -22 43 -40 48 -40 15 0 84 -66 77 -74 -3 -3 3 -6
14 -6 11 0 27 -8 34 -17 12 -15 12 -16 -1 -8 -9 5 -12 5 -7 -1 5 -5 12 -9 17
-9 4 0 24 -15 44 -32 19 -18 39 -33 44 -33 5 0 31 -23 59 -50 28 -27 55 -50
60 -50 6 0 28 -18 51 -40 22 -22 44 -40 49 -40 15 0 83 -72 77 -81 -3 -5 2 -6
10 -3 9 3 16 1 16 -5 0 -6 6 -11 14 -11 8 0 18 -5 22 -12 5 -7 3 -8 -6 -3 -9
5 -11 4 -6 -4 4 -6 12 -9 17 -6 12 8 42 -22 34 -35 -3 -6 1 -7 9 -4 9 3 16 1
16 -5 0 -6 9 -11 20 -11 18 0 25 -10 21 -32 0 -5 2 -7 7 -6 13 5 54 -30 48
-41 -4 -7 -1 -8 8 -5 9 3 16 1 16 -5 0 -6 6 -11 13 -11 6 0 30 -18 52 -40 22
-21 45 -39 51 -40 6 0 18 -8 25 -17 12 -15 12 -16 -1 -8 -9 5 -12 5 -7 -1 5
-5 12 -9 15 -9 14 0 52 -32 45 -38 -3 -4 3 -7 14 -7 11 0 27 -8 34 -17 12 -15
12 -16 -1 -8 -9 5 -12 5 -7 -1 5 -5 12 -9 17 -9 4 0 23 -14 42 -30 18 -17 41
-34 51 -38 11 -4 15 -12 11 -18 -4 -7 -3 -9 3 -6 11 7 65 -37 56 -47 -3 -3 3
-6 14 -6 23 0 47 -23 35 -34 -4 -4 -2 -6 4 -4 6 2 27 -11 45 -27 19 -17 42
-34 52 -38 11 -4 15 -12 11 -18 -4 -7 -3 -9 3 -6 6 4 29 -11 51 -33 22 -22 46
-40 52 -40 6 0 8 -5 4 -12 -4 -6 -3 -8 3 -5 14 9 57 -29 48 -42 -3 -7 0 -8 9
-5 9 3 16 1 16 -5 0 -6 9 -11 21 -11 15 0 19 -5 15 -16 -3 -8 -2 -12 3 -9 11
6 62 -41 53 -49 -3 -3 5 -6 17 -6 14 0 41 -19 70 -50 26 -28 52 -50 58 -50 14
0 83 -66 76 -74 -3 -3 3 -6 14 -6 11 0 27 -8 34 -17 12 -14 12 -16 0 -8 -10 5
-12 4 -7 -4 4 -6 11 -9 15 -7 11 7 72 -54 65 -65 -3 -5 2 -6 10 -3 9 3 16 1
16 -5 0 -6 7 -11 16 -11 9 0 29 -13 44 -30 15 -16 36 -30 45 -30 11 0 15 -5
12 -15 -4 -8 -1 -17 5 -21 7 -4 8 -3 4 4 -4 7 -3 12 1 12 5 0 14 -9 21 -20 14
-24 45 -26 62 -5 7 8 16 12 21 9 5 -3 8 0 7 6 -2 7 6 17 17 23 11 7 31 24 46
40 15 15 34 27 43 27 9 0 16 5 16 11 0 6 7 9 15 5 8 -3 14 0 12 7 -1 7 4 11
11 9 8 -1 11 2 7 8 -7 11 43 59 63 60 6 0 12 5 12 11 0 6 7 9 15 6 8 -4 17 -1
21 5 4 7 3 8 -4 4 -7 -4 -12 -4 -12 -1 0 12 30 37 48 40 9 1 16 8 14 14 -1 6
6 15 15 18 10 4 35 24 55 45 20 21 44 38 52 38 9 0 16 5 16 11 0 6 7 8 16 5 9
-3 12 -2 8 5 -6 10 34 46 48 42 3 -1 12 5 20 15 12 16 11 16 -7 2 -19 -14 -19
-14 -6 3 7 9 20 17 27 17 8 0 14 5 14 11 0 6 7 8 16 5 9 -3 12 -2 9 5 -8 11
43 59 63 59 6 0 12 5 12 11 0 6 7 8 16 5 8 -3 13 -2 10 2 -6 10 59 82 74 82 6
0 27 15 46 32 20 18 40 33 44 33 5 0 12 4 17 9 5 6 2 6 -7 1 -13 -8 -13 -7 -1
8 7 9 23 17 34 17 11 0 17 3 14 6 -9 10 45 54 56 47 6 -3 7 -1 3 6 -4 6 0 14
11 18 9 4 30 18 46 32 16 14 32 26 35 26 17 1 31 17 25 30 -4 11 2 15 22 15
14 0 24 4 21 8 -7 11 42 47 65 48 18 1 19 -43 19 -1472 l0 -1474 30 0 c34 0
40 15 10 23 -11 3 -20 11 -19 19 0 10 2 10 6 1 12 -30 56 -9 124 60 26 26 54
47 61 47 7 1 31 19 53 40 22 22 46 40 53 40 6 0 12 5 12 11 0 6 7 9 15 6 8 -4
17 -1 21 5 4 7 3 8 -4 4 -22 -13 -12 2 24 38 20 20 45 36 57 36 11 0 18 3 14
6 -8 9 60 74 78 74 8 0 15 5 15 11 0 6 7 8 16 5 9 -3 12 -2 8 5 -6 10 31 44
48 44 4 0 13 7 20 15 11 12 11 12 -5 1 -15 -12 -17 -12 -11 3 3 9 12 16 20 16
8 0 30 16 51 35 20 19 40 32 45 29 5 -3 7 0 6 6 -2 7 6 17 17 23 11 7 31 24
44 39 23 27 49 39 36 18 -10 -16 1 -11 16 7 10 11 10 14 2 9 -7 -4 -13 -2 -13
3 0 6 7 11 15 11 9 0 32 15 52 33 19 17 39 31 44 30 5 -2 8 0 8 5 -4 23 4 32
28 32 14 0 24 3 21 6 -7 7 62 74 76 74 5 0 22 13 37 30 16 16 35 29 41 27 7
-1 12 3 13 8 1 20 17 35 37 35 12 0 19 3 15 6 -7 8 59 74 74 74 6 0 34 22 62
50 28 27 59 50 70 50 11 0 18 3 14 6 -9 10 16 32 30 27 10 -4 13 483 13 2445
0 2168 -2 2451 -15 2456 -8 3 -15 1 -15 -4z m-3305 -1800 c3 -5 1 -10 -4 -10
-6 0 -11 5 -11 10 0 6 2 10 4 10 3 0 8 -4 11 -10z m1705 -1414 c0 -3 -4 -8
-10 -11 -5 -3 -10 -1 -10 4 0 6 5 11 10 11 6 0 10 -2 10 -4z"/>
<path d="M1610 7076 c0 -2 8 -10 18 -17 15 -13 16 -12 3 4 -13 16 -21 21 -21
13z"/>
<path d="M190 4271 l0 -1830 152 -123 c83 -68 192 -157 242 -198 50 -41 228
-187 396 -324 168 -137 339 -277 380 -311 41 -34 201 -164 355 -290 154 -126
332 -272 396 -324 64 -53 163 -134 220 -181 57 -47 153 -125 214 -175 62 -49
184 -150 273 -223 l162 -132 0 963 0 964 -312 254 c-171 140 -358 292 -414
339 -56 47 -206 170 -333 273 l-231 188 -1 862 c-1 474 -1 865 0 869 0 4 -79
72 -177 152 -97 80 -334 274 -527 432 -192 157 -392 321 -444 363 -51 42 -150
122 -218 179 -69 56 -127 102 -129 102 -2 0 -4 -823 -4 -1829z"/>
<path d="M5679 3253 c-13 -16 -12 -17 4 -4 9 7 17 15 17 17 0 8 -8 3 -21 -13z"/>
</g>
</svg>
